<svg width="35" height="32" viewBox="0 0 35 32" fill="none" xmlns="http://www.w3.org/2000/svg">
<path d="M19.7959 5.25543C19.7959 5.25543 13.6561 22.5349 11.5911 28.6707C11.1231 30.0465 10.1869 30.7894 9.14069 30.7894H1.21122C1.01849 30.7894 0.825761 30.6793 0.71563 30.5418C0.605499 30.3767 0.550433 30.1566 0.633031 29.9639C7.95677 10.5108 9.77394 0.963088 12.6098 0.853027H18.3917C20.9523 0.853027 20.7871 2.91666 19.7959 5.25543Z" fill="url(#paint0_linear_31_802)"/>
<path opacity="0.13" d="M19.7959 5.25543C19.7959 5.25543 13.6561 22.5349 11.5911 28.6707C11.1231 30.0465 10.1869 30.7894 9.14069 30.7894H1.21122C1.01849 30.7894 0.825761 30.6793 0.71563 30.5418C0.605499 30.3767 0.550433 30.1566 0.633031 29.9639C7.95677 10.5108 9.77394 0.963088 12.6098 0.853027H18.3917C20.9523 0.853027 20.7871 2.91666 19.7959 5.25543Z" fill="url(#paint1_linear_31_802)"/>
<path opacity="0.56" d="M12.8852 0.853027C12.8576 0.853027 12.8026 0.853027 12.775 0.853027C9.99421 1.21072 8.1495 10.7584 0.90836 29.9089C0.825762 30.129 0.880827 30.3767 1.01849 30.5418C1.12862 30.6518 1.29382 30.7344 1.45902 30.7344H1.21122C1.01849 30.7344 0.825761 30.6243 0.71563 30.4867C0.605499 30.3216 0.550433 30.1015 0.633031 29.9089C7.95677 10.5108 9.77394 0.963088 12.6098 0.853027H12.8852Z" fill="url(#paint2_linear_31_802)"/>
<path d="M29.5704 31.1196C29.0197 31.1471 28.056 31.1196 27.3677 31.1196C26.9272 31.1196 26.5417 30.8444 26.3765 30.4317C16.1343 5.61313 14.3171 0.853027 12.6101 0.853027H19.1629C22.9625 0.853027 24.0087 1.21072 25.9085 5.06283C27.6981 8.72233 31.773 18.7378 34.0031 24.4609C35.6 28.5607 33.7829 31.0095 29.5704 31.1196Z" fill="url(#paint3_linear_31_802)"/>
<path opacity="0.56" d="M28.1111 31.1471C27.8358 31.1471 27.588 31.1471 27.3677 31.1471C26.9272 31.1471 26.5417 30.8719 26.3765 30.4592C16.1343 5.61313 14.3171 0.853027 12.6101 0.853027H12.8579C14.5925 0.853027 16.4096 5.61313 26.5968 30.4592C26.762 30.8719 27.1475 31.1471 27.588 31.1471C27.7807 31.1471 27.9459 31.1471 28.1111 31.1471Z" fill="url(#paint4_linear_31_802)"/>
<path opacity="0.11" d="M29.569 31.1194C29.0183 31.1469 28.0547 31.1194 27.3663 31.1194C26.9258 31.1194 26.5404 30.8443 26.3752 30.4315C16.4633 6.4109 14.481 0.880371 12.7739 0.880371C21.0063 0.880371 26.1274 25.7815 34.4148 25.7815C35.1581 29.0833 33.3134 31.0369 29.569 31.1194Z" fill="url(#paint5_linear_31_802)"/>
<defs>
<linearGradient id="paint0_linear_31_802" x1="15.4933" y1="5.91095" x2="4.1703" y2="30.9323" gradientUnits="userSpaceOnUse">
<stop stop-color="#184BCC"/>
<stop offset="1" stop-color="#477BFF"/>
</linearGradient>
<linearGradient id="paint1_linear_31_802" x1="4.00774" y1="34.3593" x2="14.1483" y2="7.06926" gradientUnits="userSpaceOnUse">
<stop stop-color="#F6EF7E"/>
<stop offset="1" stop-color="white" stop-opacity="0"/>
</linearGradient>
<linearGradient id="paint2_linear_31_802" x1="11.9665" y1="-0.0718636" x2="2.18854" y2="28.9806" gradientUnits="userSpaceOnUse">
<stop stop-color="#A7AED0"/>
<stop offset="0.5084" stop-color="#7193EA"/>
<stop offset="0.9916" stop-color="#2B52B8"/>
</linearGradient>
<linearGradient id="paint3_linear_31_802" x1="33.4498" y1="31.2496" x2="17.459" y2="1.69909" gradientUnits="userSpaceOnUse">
<stop stop-color="#608CFB"/>
<stop offset="1" stop-color="#3E73FB"/>
</linearGradient>
<linearGradient id="paint4_linear_31_802" x1="13.7849" y1="0.581509" x2="26.7801" y2="31.095" gradientUnits="userSpaceOnUse">
<stop stop-color="#C2D5FA"/>
<stop offset="0.5084" stop-color="#443BAF"/>
<stop offset="0.9916" stop-color="#C9C0FF"/>
</linearGradient>
<linearGradient id="paint5_linear_31_802" x1="35.7052" y1="31.5039" x2="14.3377" y2="9.09221" gradientUnits="userSpaceOnUse">
<stop stop-color="#F6EF7E"/>
<stop offset="1" stop-color="white" stop-opacity="0"/>
</linearGradient>
</defs>
</svg>
