<svg width="178" height="76" viewBox="0 0 178 76" fill="none" xmlns="http://www.w3.org/2000/svg">
<mask id="mask0_31_829" style="mask-type:alpha" maskUnits="userSpaceOnUse" x="0" y="0" width="178" height="76">
<rect width="178" height="76" fill="#C4C4C4"/>
</mask>
<g mask="url(#mask0_31_829)">
</g>
<g style="mix-blend-mode:luminosity" clip-path="url(#clip0_31_829)">
<path d="M30.1381 23.1196V35.2488H19.1967V23.1196H14.0022V52.0731H19.1967V40.3378H30.1381V52.0731H35.3326V23.1196H30.1381Z" fill="#465660"/>
<path d="M51.9567 42.7113C51.9567 43.8716 51.5039 44.9845 50.698 45.805C49.8921 46.6255 48.799 47.0864 47.6593 47.0864C46.5195 47.0864 45.4265 46.6255 44.6206 45.805C43.8146 44.9845 43.3619 43.8716 43.3619 42.7113V30.3101H38.4346V42.7113C38.4346 45.1997 39.4055 47.5861 41.1338 49.3457C42.8621 51.1053 45.2062 52.0938 47.6504 52.0938C50.0945 52.0938 52.4386 51.1053 54.1669 49.3457C55.8952 47.5861 56.8661 45.1997 56.8661 42.7113V30.3101H51.9567V42.7113Z" fill="#465660"/>
<path d="M88.4636 31.5876C88.4636 29.0457 90.1154 28.2399 91.9249 28.2399C93.3833 28.2399 95.3099 29.3696 96.5697 30.7403L99.7969 26.8692C98.1859 24.6511 94.918 23.1172 92.2431 23.1172C86.8984 23.1172 83.0324 26.3043 83.0324 31.5876C83.0324 41.3899 94.8009 38.2806 94.8009 43.766C94.8009 45.458 93.1873 46.9531 91.3396 46.9531C88.4254 46.9531 87.4812 45.5021 86.1425 43.9681L82.5615 47.7589C84.8521 50.6222 87.6772 52.0758 91.0621 52.0758C96.1396 52.0758 100.225 48.8498 100.225 43.8075C100.225 32.9247 88.456 36.3061 88.456 31.5876" fill="#465660"/>
<path d="M161.268 47.4444C158.356 47.4444 157.529 46.1618 157.529 44.1977V35.5045H162.054V31.0995H157.529V25.2876L152.533 27.5704V45.2783C152.533 49.8076 155.602 52.0904 159.812 52.0904C160.472 52.1026 161.132 52.0488 161.782 51.9297L163.001 47.3615C162.451 47.4004 161.82 47.4393 161.268 47.4393" fill="#465660"/>
<path d="M70.7111 30.4545C68.2704 30.4545 66.5677 31.1749 64.921 32.8203V23.29H59.9861V40.9538C59.9861 47.5664 64.6818 52.0958 69.9578 52.0958C75.8115 52.0958 80.9602 47.4861 80.9602 41.2777C80.9602 35.1471 76.2212 30.4571 70.7111 30.4571V30.4545ZM70.6806 47.0404C69.5732 47.0404 68.4906 46.7061 67.5698 46.0797C66.649 45.4534 65.9314 44.5631 65.5076 43.5214C65.0838 42.4798 64.9729 41.3336 65.189 40.2278C65.405 39.122 65.9383 38.1063 66.7213 37.3091C67.5044 36.5118 68.5021 35.9689 69.5882 35.749C70.6744 35.529 71.8002 35.6419 72.8233 36.0733C73.8464 36.5048 74.7209 37.2355 75.3361 38.1729C75.9514 39.1103 76.2798 40.2125 76.2798 41.3399C76.2798 42.8518 75.6899 44.3017 74.6398 45.3708C73.5898 46.4399 72.1656 47.0404 70.6806 47.0404Z" fill="#465660"/>
<path d="M124.297 41.0133C124.297 34.7946 119.159 30.1953 113.295 30.1953C108.019 30.1953 103.323 34.7246 103.323 41.3372V59.0114H108.258V49.4682C109.902 51.111 111.608 51.8339 114.046 51.8339C119.556 51.8339 124.295 47.1466 124.295 41.0133H124.297ZM119.625 40.9511C119.625 42.0786 119.296 43.1807 118.681 44.1182C118.066 45.0556 117.191 45.7863 116.168 46.2177C115.145 46.6492 114.019 46.7621 112.933 46.5421C111.847 46.3222 110.849 45.7792 110.066 44.982C109.283 44.1848 108.75 43.169 108.534 42.0632C108.318 40.9575 108.429 39.8113 108.852 38.7696C109.276 37.728 109.994 36.8377 110.915 36.2113C111.835 35.585 112.918 35.2506 114.025 35.2506C115.51 35.2506 116.935 35.8512 117.985 36.9203C119.035 37.9893 119.625 39.4393 119.625 40.9511Z" fill="#465660"/>
<path d="M140.238 29.9534V24.9059C140.893 24.5942 141.448 24.0995 141.838 23.4793C142.228 22.8591 142.436 22.1389 142.44 21.4027V21.2861C142.44 20.2553 142.037 19.2667 141.321 18.5378C140.605 17.8089 139.634 17.3994 138.622 17.3994H138.507C137.495 17.3994 136.524 17.8089 135.808 18.5378C135.092 19.2667 134.69 20.2553 134.69 21.2861V21.4027C134.693 22.1389 134.902 22.8591 135.292 23.4793C135.681 24.0995 136.236 24.5942 136.891 24.9059V29.9534C135.008 30.2467 133.235 31.0414 131.75 32.257L118.154 21.4752C118.251 21.1197 118.302 20.7531 118.307 20.3844C118.309 19.5182 118.058 18.671 117.586 17.9499C117.115 17.2289 116.444 16.6664 115.658 16.3336C114.873 16.0008 114.008 15.9127 113.173 16.0804C112.339 16.248 111.571 16.664 110.969 17.2756C110.366 17.8872 109.956 18.6669 109.788 19.5162C109.621 20.3656 109.705 21.2463 110.03 22.047C110.354 22.8477 110.905 23.5324 111.612 24.0146C112.319 24.4967 113.15 24.7546 114.001 24.7556C114.745 24.7522 115.475 24.5503 116.118 24.17L129.508 34.7756C128.305 36.6256 127.677 38.8017 127.707 41.0203C127.736 43.2388 128.421 45.3969 129.673 47.213L125.601 51.3589C125.272 51.2518 124.929 51.195 124.583 51.1904C123.885 51.191 123.202 51.4023 122.622 51.7976C122.041 52.193 121.589 52.7547 121.322 53.4118C121.055 54.0689 120.985 54.7918 121.121 55.4892C121.258 56.1866 121.594 56.8272 122.088 57.3301C122.582 57.8329 123.211 58.1754 123.896 58.3142C124.581 58.4531 125.291 58.3821 125.936 58.1102C126.582 57.8383 127.134 57.3777 127.522 56.7867C127.91 56.1956 128.118 55.5006 128.118 54.7895C128.114 54.4376 128.058 54.0883 127.953 53.7531L131.982 49.6513C133.296 50.6805 134.823 51.39 136.448 51.7254C138.072 52.0608 139.751 52.0131 141.355 51.5861C142.958 51.1591 144.445 50.3641 145.7 49.262C146.956 48.1598 147.947 46.7797 148.597 45.2275C149.248 43.6752 149.541 41.992 149.454 40.3066C149.367 38.6213 148.902 36.9785 148.095 35.5043C147.288 34.03 146.161 32.7633 144.799 31.8011C143.437 30.839 141.877 30.207 140.238 29.9534ZM138.568 46.5523C137.466 46.5513 136.389 46.2177 135.474 45.5936C134.558 44.9696 133.844 44.0831 133.423 43.0463C133.002 42.0094 132.892 40.8688 133.107 39.7684C133.323 38.6681 133.854 37.6574 134.633 36.8642C135.413 36.071 136.406 35.5309 137.487 35.3121C138.567 35.0932 139.688 35.2056 140.706 35.6348C141.724 36.0641 142.595 36.791 143.207 37.7237C143.82 38.6564 144.147 39.7531 144.147 40.8751C144.147 42.3801 143.56 43.8235 142.515 44.8877C141.47 45.9518 140.052 46.5497 138.574 46.5497" fill="#EE721C"/>
</g>
<defs>
<clipPath id="clip0_31_829">
<rect width="149" height="43" fill="white" transform="translate(14 16)"/>
</clipPath>
</defs>
</svg>
