<svg width="28" height="28" viewBox="0 0 28 28" fill="none" xmlns="http://www.w3.org/2000/svg">
<path d="M21.4134 0.666504H6.54675C3.30675 0.666504 0.666748 3.3065 0.666748 6.5465V15.2132V15.4798C0.666748 18.7332 3.30675 21.3598 6.54675 21.3598H11.6667C12.4001 21.3598 13.0001 21.9598 13.0001 22.6932V23.9865C13.0001 24.7198 12.4001 25.3198 11.6667 25.3198H8.44008C7.89341 25.3198 7.44008 25.7732 7.44008 26.3198C7.44008 26.8665 7.88008 27.3332 8.44008 27.3332H19.5734C20.1201 27.3332 20.5734 26.8798 20.5734 26.3332C20.5734 25.7865 20.1201 25.3332 19.5734 25.3332H16.3467C15.6134 25.3332 15.0134 24.7332 15.0134 23.9998V22.7065C15.0134 21.9732 15.6134 21.3732 16.3467 21.3732H21.4267C24.6801 21.3732 27.3067 18.7332 27.3067 15.4932V15.2265V6.55984C27.2934 3.3065 24.6534 0.666504 21.4134 0.666504Z" fill="url(#paint0_linear_597_896)"/>
<defs>
<linearGradient id="paint0_linear_597_896" x1="36.2223" y1="-6.88906" x2="4.14641" y2="-14.7049" gradientUnits="userSpaceOnUse">
<stop stop-color="#40AAF8"/>
<stop offset="1" stop-color="#1D33F8"/>
</linearGradient>
</defs>
</svg>
