<svg width="20" height="30" viewBox="0 0 20 30" fill="none" xmlns="http://www.w3.org/2000/svg">
<path d="M14.3201 0.333496H5.68008C2.00008 0.333496 0.666748 1.66683 0.666748 5.4135V24.5868C0.666748 28.3335 2.00008 29.6668 5.68008 29.6668H14.3067C18.0001 29.6668 19.3334 28.3335 19.3334 24.5868V5.4135C19.3334 1.66683 18.0001 0.333496 14.3201 0.333496ZM10.0001 27.4002C8.72008 27.4002 7.66675 26.3468 7.66675 25.0668C7.66675 23.7868 8.72008 22.7335 10.0001 22.7335C11.2801 22.7335 12.3334 23.7868 12.3334 25.0668C12.3334 26.3468 11.2801 27.4002 10.0001 27.4002ZM12.6667 4.66683H7.33342C6.78675 4.66683 6.33342 4.2135 6.33342 3.66683C6.33342 3.12016 6.78675 2.66683 7.33342 2.66683H12.6667C13.2134 2.66683 13.6667 3.12016 13.6667 3.66683C13.6667 4.2135 13.2134 4.66683 12.6667 4.66683Z" fill="#19172C"/>
</svg>
