<svg width="32" height="32" viewBox="0 0 32 32" fill="none" xmlns="http://www.w3.org/2000/svg">
<path d="M24.6265 2.6665H19.2932C17.247 2.6665 15.5655 4.47845 15.3232 6.50095C15.2903 6.77513 15.5171 6.99984 15.7932 6.99984H21.9599C22.5065 6.99984 22.9599 7.45317 22.9599 7.99984C22.9599 8.5465 22.5065 8.99984 21.9599 8.99984H15.7932C15.5171 8.99984 15.2932 9.2237 15.2932 9.49984V11.8332C15.2932 12.1093 15.5171 12.3332 15.7932 12.3332H19.0399C19.5865 12.3332 20.0399 12.7865 20.0399 13.3332C20.0399 13.8798 19.5865 14.3332 19.0399 14.3332H15.7932C15.5171 14.3332 15.2932 14.557 15.2932 14.8332V17.1048C15.2932 17.379 15.514 17.602 15.7882 17.6048L21.9599 17.6665C22.5199 17.6665 22.9599 18.1198 22.9599 18.6798C22.9465 19.2265 22.5065 19.6665 21.9599 19.6665C21.9465 19.6665 21.9465 19.6665 21.9465 19.6665L15.7982 19.6049C15.5201 19.6021 15.2932 19.8268 15.2932 20.1049V22.4998C15.2932 22.776 15.5171 22.9998 15.7932 22.9998H20.4932C21.0532 22.9998 21.4932 23.4532 21.4932 23.9998C21.4932 24.5465 21.0532 24.9998 20.4932 24.9998H15.7932C15.5171 24.9998 15.2903 25.2245 15.3232 25.4987C15.5655 27.5212 17.247 29.3332 19.2932 29.3332H24.6265C26.8265 29.3332 28.6265 27.5465 28.6265 25.3332V6.6665C28.6265 4.45317 26.8265 2.6665 24.6265 2.6665Z" fill="#19172C"/>
<path d="M11.2533 6.59984V7.83317C11.2533 8.10931 11.0294 8.33317 10.7533 8.33317H3.87329C3.59715 8.33317 3.37329 8.10931 3.37329 7.83317V6.59984C3.37329 4.43984 5.14662 2.6665 7.31996 2.6665C9.47996 2.6665 11.2533 4.43984 11.2533 6.59984Z" fill="#292D32"/>
<path d="M3.37329 23.8802C3.37329 24.4802 3.62662 25.4002 3.94662 25.9068L5.02662 27.7202C6.29329 29.8268 8.34662 29.8268 9.59996 27.7202L10.6933 25.9068C11 25.4002 11.2533 24.4802 11.2533 23.8802V10.8335C11.2533 10.5574 11.0294 10.3335 10.7533 10.3335H3.87329C3.59715 10.3335 3.37329 10.5574 3.37329 10.8335V23.8802Z" fill="#292D32"/>
</svg>
