<svg width="70" height="29" viewBox="0 0 70 29" fill="none" xmlns="http://www.w3.org/2000/svg">
<path d="M9.15443 21.8303L6.78821 26.1935L0 22.2444L0.593279 21.1519L6.47088 24.5653L8.24382 21.2947L9.15443 21.8231V21.8303Z" fill="white"/>
<path d="M13.5143 16.5746L10.2099 20.3666L4.43579 14.975L7.74022 11.1831L8.51286 11.9044L6.01557 14.7679L7.70572 16.3461L10.0719 13.6325L10.817 14.3252L8.45077 17.0388L10.2444 18.7098L12.7417 15.8462L13.5143 16.5746Z" fill="white"/>
<path d="M17.3706 10.8971L14.9147 12.6182L15.5011 14.8319L14.4594 15.5603L12.4243 7.26233L13.5074 6.50537L20.1921 11.5398L19.1366 12.2825L17.3706 10.89V10.8971ZM14.625 11.6041L16.5704 10.2402L13.7006 7.99072L13.673 8.01214L14.625 11.6113V11.6041Z" fill="white"/>
<path d="M22.7377 10.4901L21.5994 10.9114L18.9849 3.33472L21.8616 2.2707C23.3655 1.71369 24.621 2.2707 25.1039 3.68463C25.4557 4.70581 25.2143 5.73413 24.4279 6.37683L27.139 8.86907L25.8214 9.35466L23.3241 6.99096L21.7236 7.58367L22.7308 10.4972L22.7377 10.4901ZM21.4063 6.62677L23.0412 6.01977C23.9174 5.69842 24.2554 5.00574 23.9587 4.14166C23.669 3.29901 22.9516 2.97766 22.0754 3.30615L20.475 3.89887L21.4132 6.62677H21.4063Z" fill="white"/>
<path d="M28.6981 8.53361L28.0911 0.514159L29.181 0.428466L33.6444 6.0128H33.6858L33.2374 0.0928343L34.4102 0L35.0172 8.01945L33.9342 8.10515L29.4708 2.52081H29.4225L29.8709 8.43364L28.6981 8.52647V8.53361Z" fill="white"/>
<path d="M47.959 11.24L46.9173 10.8616L48.7937 5.26293L48.7592 5.24865L44.6821 9.99748L43.8336 9.69041L43.468 3.34912L43.4335 3.33483L41.5571 8.93346L40.5154 8.56212L43.0679 0.949707L44.3855 1.42102L44.7511 8.28362L44.7925 8.2979L49.18 3.14202L50.5045 3.62048L47.9521 11.2329L47.959 11.24Z" fill="white"/>
<path d="M57.6445 13.4396C56.1613 15.489 54.1124 15.8961 52.3188 14.5036C50.5252 13.1111 50.3251 10.9616 51.8083 8.91209C53.2915 6.8626 55.3404 6.44841 57.134 7.84093C58.9276 9.2263 59.1208 11.3829 57.6376 13.4324L57.6445 13.4396ZM52.7948 9.68333C51.7117 11.183 51.7738 12.7112 52.9535 13.6252C54.1331 14.5393 55.5611 14.1679 56.6511 12.6683C57.7411 11.1615 57.6859 9.64049 56.4993 8.72643C55.3197 7.81236 53.8848 8.17656 52.7948 9.68333Z" fill="white"/>
<path d="M57.2514 19.0381L56.5063 18.0526L62.6461 13.0967L64.5294 15.5961C65.5159 16.9029 65.3986 18.3097 64.2535 19.2309C63.4256 19.9021 62.4046 19.9878 61.5699 19.4094L60.135 22.8586L59.2796 21.716L60.6662 18.5168L59.6176 17.1243L57.2583 19.0309L57.2514 19.0381ZM60.3834 16.5101L61.4526 17.9241C62.0252 18.6882 62.7634 18.8024 63.4601 18.2311C64.1431 17.6813 64.2121 16.8743 63.6395 16.1174L62.5909 14.7249L60.3834 16.503V16.5101Z" fill="white"/>
<path d="M62.922 29.0002L60.887 24.3514L67.9649 21.0308L70 25.6796L69.0549 26.1224L67.5165 22.6089L65.4469 23.5801L66.9025 26.9079L65.9919 27.3363L64.5363 24.0086L62.3357 25.0369L63.874 28.5503L62.922 28.9931V29.0002Z" fill="white"/>
</svg>
