<svg width="70" height="29" viewBox="0 0 70 29" fill="none" xmlns="http://www.w3.org/2000/svg">
<g clip-path="url(#clip0_31_860)">
<path d="M60.8456 7.16974L63.2118 2.80653L70 6.75556L69.4067 7.84814L63.5291 4.4347L61.7562 7.70532L60.8456 7.17688L60.8456 7.16974Z" fill="white"/>
<path d="M56.4857 12.4254L59.7901 8.63344L65.5642 14.025L62.2598 17.8169L61.4871 17.0956L63.9844 14.2321L62.2943 12.6539L59.9281 15.3675L59.183 14.6748L61.5492 11.9612L59.7556 10.2902L57.2583 13.1538L56.4857 12.4254Z" fill="white"/>
<path d="M52.6294 18.1029L55.0853 16.3818L54.4989 14.1681L55.5406 13.4397L57.5757 21.7377L56.4926 22.4946L49.8079 17.4602L50.8634 16.7175L52.6294 18.11L52.6294 18.1029ZM55.375 17.3959L53.4296 18.7598L56.2994 21.0093L56.327 20.9879L55.375 17.3887L55.375 17.3959Z" fill="white"/>
<path d="M47.2623 18.5099L48.4006 18.0886L51.0151 25.6653L48.1384 26.7293C46.6345 27.2863 45.379 26.7293 44.8961 25.3154C44.5443 24.2942 44.7857 23.2659 45.5721 22.6232L42.861 20.1309L44.1786 19.6453L46.6759 22.009L48.2764 21.4163L47.2692 18.5028L47.2623 18.5099ZM48.5937 22.3732L46.9588 22.9802C46.0826 23.3016 45.7446 23.9943 46.0413 24.8583C46.331 25.701 47.0484 26.0223 47.9246 25.6938L49.525 25.1011L48.5868 22.3732L48.5937 22.3732Z" fill="white"/>
<path d="M41.3019 20.4664L41.9089 28.4858L40.819 28.5715L36.3556 22.9872L36.3142 22.9872L36.7626 28.9072L35.5898 29L34.9828 20.9805L36.0658 20.8949L40.5292 26.4792L40.5775 26.4792L40.1291 20.5664L41.3019 20.4735L41.3019 20.4664Z" fill="white"/>
<path d="M22.041 17.76L23.0827 18.1384L21.2063 23.7371L21.2408 23.7514L25.3179 19.0025L26.1664 19.3096L26.532 25.6509L26.5665 25.6652L28.4429 20.0665L29.4846 20.4379L26.9321 28.0503L25.6145 27.579L25.2489 20.7164L25.2075 20.7021L20.82 25.858L19.4955 25.3795L22.0479 17.7671L22.041 17.76Z" fill="white"/>
<path d="M12.3555 15.5604C13.8387 13.511 15.8876 13.1039 17.6812 14.4964C19.4748 15.8889 19.6749 18.0384 18.1917 20.0879C16.7085 22.1374 14.6596 22.5516 12.866 21.1591C11.0724 19.7737 10.8792 17.6171 12.3624 15.5676L12.3555 15.5604ZM17.2052 19.3167C18.2883 17.817 18.2262 16.2888 17.0465 15.3748C15.8669 14.4607 14.4389 14.8321 13.3489 16.3317C12.2589 17.8385 12.3141 19.3595 13.5007 20.2736C14.6803 21.1876 16.1152 20.8234 17.2052 19.3167Z" fill="white"/>
<path d="M12.7486 9.96193L13.4937 10.9474L7.35391 15.9033L5.47059 13.4039C4.48409 12.0971 4.60137 10.6903 5.74653 9.76912C6.57437 9.09785 7.59536 9.01216 8.43009 9.59059L9.86499 6.14144L10.7204 7.28401L9.3338 10.4832L10.3824 11.8757L12.7417 9.96907L12.7486 9.96193ZM9.61665 12.4899L8.54736 11.0759C7.97478 10.3118 7.23663 10.1976 6.53987 10.7689C5.85691 11.3187 5.78793 12.1257 6.36051 12.8826L7.40909 14.2751L9.61665 12.497L9.61665 12.4899Z" fill="white"/>
<path d="M7.07796 -0.000226797L9.11304 4.64863L2.03509 7.96924L3.40828e-06 3.32039L0.945112 2.87764L2.48349 6.39106L4.55307 5.41987L3.09747 2.09212L4.00808 1.66365L5.46368 4.9914L7.66433 3.96308L6.12595 0.449663L7.07796 0.00691622L7.07796 -0.000226797Z" fill="white"/>
</g>
<defs>
<clipPath id="clip0_31_860">
<rect width="70" height="29" fill="white" transform="translate(70 29) rotate(180)"/>
</clipPath>
</defs>
</svg>
