<svg width="178" height="76" viewBox="0 0 178 76" fill="none" xmlns="http://www.w3.org/2000/svg">
<mask id="mask0_31_842" style="mask-type:alpha" maskUnits="userSpaceOnUse" x="0" y="0" width="178" height="76">
<rect width="178" height="76" fill="#C4C4C4"/>
</mask>
<g mask="url(#mask0_31_842)">
</g>
<g style="mix-blend-mode:luminosity" clip-path="url(#clip0_31_842)">
<path d="M66.516 32.8048V34.845H66.5793C67.3244 33.7527 68.5615 32.4663 71.3034 32.4663C73.4366 32.4663 75.073 33.536 75.7743 35.1519H75.8377C76.4367 34.3349 77.1234 33.7166 77.8929 33.2787C78.8036 32.7597 79.8167 32.4618 81.0927 32.4618C83.9807 32.4618 86.5376 34.3124 86.5376 38.9796V47.831H82.1349V39.5979C82.1349 37.2328 81.268 35.8651 79.466 35.8651C78.1462 35.8651 77.1867 36.6866 76.8214 37.6977C76.6948 38.0452 76.6364 38.5192 76.6364 38.9164V47.8355H72.2337V39.2639C72.2337 37.2553 71.4008 35.8606 69.6232 35.8606C68.2011 35.8606 67.3098 36.8987 66.9445 37.7879C66.7887 38.1671 66.74 38.6049 66.74 39.0157V47.831H62.3324V32.8048H66.516ZM109.262 32.8048V35.6394H109.384C110.193 33.4728 112.111 32.4663 113.797 32.4663C114.22 32.4663 114.454 32.4979 114.795 32.5611V36.497C114.391 36.4429 114.016 36.3887 113.49 36.3887C111.581 36.3887 110.251 37.4178 109.915 39.0292C109.842 39.3632 109.818 39.7243 109.818 40.1396V47.8355H105.298V32.8048H109.262ZM120.931 27.8262V32.5565H124.75V36.3842H120.931V42.0308C120.931 43.8589 121.433 44.7436 122.923 44.7436C123.625 44.7436 124.141 44.6623 124.589 44.5585L124.647 47.7317C124.048 47.9393 122.772 48.165 121.477 48.165C119.953 48.165 118.681 47.673 117.907 46.9102C117.021 46.039 116.612 44.6127 116.612 42.5815V27.8262H120.931ZM59.2641 47.831H54.8809V27.8262H59.2641V47.831ZM47.5755 42.4642C47.5755 42.7395 47.5511 43.0284 47.4683 43.2766C47.1274 44.3193 45.9634 45.1995 44.5121 45.1995C43.2994 45.1995 42.3351 44.563 42.3351 43.2134C42.3351 41.1507 44.7897 40.5774 47.5803 40.591V42.4642H47.5755ZM51.9539 38.8667C51.9539 35.4589 50.3856 32.4663 45.0819 32.4663C42.3594 32.4663 40.197 33.1749 39.0184 33.8068L39.8805 36.5422C40.9568 35.9102 42.676 35.3912 44.3027 35.3912C46.9959 35.3866 47.4342 36.804 47.4342 37.7112V37.9279C41.5656 37.9188 37.8593 39.8011 37.8593 43.6377C37.8593 45.9803 39.7441 48.174 43.0266 48.174C45.0478 48.174 46.7329 47.4292 47.7459 46.2331H47.8433C47.8433 46.2331 48.5154 48.8285 52.2071 47.8355C52.0123 46.7522 51.949 45.6012 51.949 44.2155V38.8667H51.9539ZM15.8408 27.8262C16.2937 29.9431 17.5795 36.0908 17.5795 36.0908C18.1201 38.6185 18.6169 41.268 18.9919 43.3624H19.0601C19.4253 41.1371 20 39.0292 20.6137 36.4203L22.7809 27.8262H27.5782L29.6042 36.6415C30.135 39.0924 30.5588 40.9837 30.8948 43.2631H30.9581C31.3234 40.9611 31.8007 38.9931 32.3218 36.4745L34.2699 27.8262H38.8723L33.1692 47.831C29.536 48.5667 28.1431 47.2126 27.6463 45.0641C27.1496 42.911 26.1755 38.8171 26.1755 38.8171C25.6739 36.5738 25.2843 34.994 25.0115 32.692H24.9433C24.5537 34.9714 24.1446 36.5692 23.5407 38.8126L21.1494 47.8355C17.4383 48.5216 16.1525 47.506 15.4414 44.7481C14.8278 42.3874 10.9998 27.8307 10.9998 27.8307H15.8408V27.8262ZM97.9925 42.4642C97.9925 42.7395 97.9682 43.0284 97.8854 43.2766C97.5444 44.3193 96.3805 45.1995 94.9291 45.1995C93.7164 45.1995 92.7521 44.563 92.7521 43.2134C92.7521 41.1507 95.2067 40.5774 97.9974 40.591V42.4642H97.9925ZM102.371 38.8667C102.371 35.4589 100.803 32.4663 95.4989 32.4663C92.7765 32.4663 90.6141 33.1749 89.4354 33.8068L90.2975 36.5422C91.3738 35.9102 93.093 35.3912 94.7197 35.3912C97.4081 35.3866 97.8513 36.804 97.8513 37.7112V37.9279C91.9875 37.9188 88.2812 39.8011 88.2812 43.6377C88.2812 45.9803 90.1709 48.174 93.4486 48.174C95.4648 48.174 97.1548 47.4292 98.163 46.2331H98.2652C98.2652 46.2331 98.9373 48.8285 102.629 47.8355C102.434 46.7522 102.371 45.6012 102.371 44.2155V38.8667Z" fill="#0676C3"/>
<path d="M142.518 40.9411C142.95 41.6716 142.921 42.487 142.46 42.8594L134.489 48.2844C133.658 48.751 132.416 48.1854 131.712 47.0024C131.003 45.8146 131.129 44.4902 131.959 44.0236L140.785 40.0361C141.338 39.8287 142.086 40.2105 142.518 40.9411ZM153.009 40.9411C153.446 40.2105 154.189 39.8335 154.742 40.0314L163.573 44.0189C164.403 44.4855 164.524 45.8099 163.82 46.9976C163.111 48.1807 161.864 48.7416 161.039 48.2797L153.067 42.8547C152.611 42.487 152.577 41.6669 153.009 40.9411ZM147.761 43.8822C148.63 43.8822 149.344 44.3158 149.441 44.8861L150.3 54.3032C150.3 55.2364 149.179 56 147.766 56C146.358 56 145.232 55.2364 145.232 54.3032L146.086 44.8861C146.183 44.3158 146.897 43.8822 147.761 43.8822ZM153.067 33.1453L161.039 27.7156C161.864 27.249 163.111 27.8099 163.82 28.9976C164.524 30.1854 164.403 31.5098 163.573 31.9764L154.742 35.9686C154.189 36.1665 153.441 35.7895 153.009 35.0589C152.577 34.3284 152.611 33.513 153.067 33.1453ZM140.785 35.9686L131.959 31.9764C131.134 31.5098 131.008 30.1854 131.712 28.9976C132.416 27.8099 133.663 27.249 134.489 27.7156L142.46 33.1453C142.921 33.5082 142.95 34.3284 142.518 35.0589C142.086 35.7895 141.338 36.1665 140.785 35.9686ZM146.086 31.1139L145.232 21.6968C145.232 20.7636 146.353 20 147.766 20C149.179 20 150.3 20.7636 150.3 21.6968L149.441 31.1139C149.344 31.6795 148.63 32.1178 147.761 32.1178C146.897 32.1178 146.183 31.6795 146.086 31.1139ZM165.976 48.2467V48.011H166.194C166.267 48.011 166.316 48.0581 166.316 48.1288C166.316 48.1948 166.267 48.2467 166.194 48.2467H165.976ZM165.796 48.6756C165.796 48.6991 165.815 48.7227 165.845 48.7227H165.937C165.961 48.7227 165.985 48.6991 165.985 48.6756V48.4069H166.136L166.257 48.6897C166.267 48.7086 166.282 48.7227 166.301 48.7227H166.413C166.447 48.7227 166.471 48.6897 166.456 48.6567C166.413 48.5719 166.369 48.4823 166.325 48.3928C166.398 48.3692 166.51 48.2985 166.51 48.1288C166.51 47.9497 166.359 47.846 166.209 47.846H165.845C165.82 47.846 165.796 47.8696 165.796 47.8932V48.6756ZM165.403 48.2844C165.403 47.9026 165.723 47.5915 166.116 47.5915C166.51 47.5915 166.83 47.8979 166.83 48.2844C166.83 48.6661 166.515 48.9772 166.116 48.9772C165.718 48.9772 165.403 48.6661 165.403 48.2844ZM165.233 48.2844C165.233 48.7557 165.626 49.1422 166.116 49.1422C166.602 49.1422 167 48.7557 167 48.2844C167 47.813 166.602 47.4265 166.116 47.4265C165.626 47.4265 165.233 47.813 165.233 48.2844Z" fill="#F7AE2E"/>
</g>
<defs>
<clipPath id="clip0_31_842">
<rect width="156" height="36" fill="white" transform="translate(11 20)"/>
</clipPath>
</defs>
</svg>
